<?xml version="1.0" encoding="UTF-8"?>
<svg width="800px" height="600px" viewBox="0 0 800 600" version="1.1" xmlns="http://www.w3.org/2000/svg" xmlns:xlink="http://www.w3.org/1999/xlink">
    <title>Education Illustration</title>
    <g id="Education" stroke="none" stroke-width="1" fill="none" fill-rule="evenodd">
        <!-- Background Elements -->
        <circle id="Background-Circle-1" fill="#F0F4FF" cx="400" cy="300" r="250"></circle>
        
        <!-- School Building -->
        <rect id="Building-Base" fill="#FFFFFF" x="250" y="200" width="300" height="250" rx="8"></rect>
        <rect id="Building-Roof" fill="#4F46E5" x="230" y="180" width="340" height="30" rx="4"></rect>
        <rect id="Door" fill="#3730A3" x="370" y="350" width="60" height="100" rx="4"></rect>
        <circle id="Door-Handle" fill="#FFD700" cx="415" cy="400" r="5"></circle>
        
        <!-- Windows -->
        <rect id="Window-1" fill="#E0E7FF" x="280" y="230" width="50" height="50" rx="4"></rect>
        <rect id="Window-2" fill="#E0E7FF" x="350" y="230" width="50" height="50" rx="4"></rect>
        <rect id="Window-3" fill="#E0E7FF" x="420" y="230" width="50" height="50" rx="4"></rect>
        <rect id="Window-4" fill="#E0E7FF" x="490" y="230" width="50" height="50" rx="4"></rect>
        <rect id="Window-5" fill="#E0E7FF" x="280" y="300" width="50" height="50" rx="4"></rect>
        <rect id="Window-6" fill="#E0E7FF" x="490" y="300" width="50" height="50" rx="4"></rect>
        
        <!-- Window Frames -->
        <path id="Window-Frame-1" d="M280,255 L330,255 M305,230 L305,280" stroke="#4F46E5" stroke-width="2"></path>
        <path id="Window-Frame-2" d="M350,255 L400,255 M375,230 L375,280" stroke="#4F46E5" stroke-width="2"></path>
        <path id="Window-Frame-3" d="M420,255 L470,255 M445,230 L445,280" stroke="#4F46E5" stroke-width="2"></path>
        <path id="Window-Frame-4" d="M490,255 L540,255 M515,230 L515,280" stroke="#4F46E5" stroke-width="2"></path>
        <path id="Window-Frame-5" d="M280,325 L330,325 M305,300 L305,350" stroke="#4F46E5" stroke-width="2"></path>
        <path id="Window-Frame-6" d="M490,325 L540,325 M515,300 L515,350" stroke="#4F46E5" stroke-width="2"></path>
        
        <!-- Flag -->
        <line id="Flag-Pole" x1="550" y1="180" x2="550" y2="100" stroke="#6B7280" stroke-width="3"></line>
        <path id="Flag" fill="#EF4444" d="M550,100 L600,115 L550,130 Z"></path>
        
        <!-- Books and Education Elements -->
        <g id="Books" transform="translate(150, 350)">
            <rect fill="#3B82F6" x="0" y="0" width="60" height="15" rx="2"></rect>
            <rect fill="#10B981" x="5" y="-20" width="60" height="15" rx="2"></rect>
            <rect fill="#F59E0B" x="10" y="-40" width="60" height="15" rx="2"></rect>
            <rect fill="#EC4899" x="15" y="-60" width="60" height="15" rx="2"></rect>
        </g>
        
        <!-- Graduation Cap -->
        <g id="Graduation-Cap" transform="translate(600, 300)">
            <rect fill="#1F2937" x="-30" y="-5" width="60" height="10" rx="2"></rect>
            <path fill="#1F2937" d="M0,-5 L-40,-25 L0,-45 L40,-25 Z"></path>
            <circle fill="#FFD700" cx="0" cy="-25" r="5"></circle>
            <line x1="0" y1="-20" x2="0" y2="20" stroke="#1F2937" stroke-width="2"></line>
            <path fill="#1F2937" d="M-10,20 L10,20 L10,30 L-10,30 Z"></path>
        </g>
        
        <!-- Students -->
        <g id="Student-1" transform="translate(180, 450)">
            <circle fill="#FBBF24" cx="0" cy="-50" r="20"></circle> <!-- Head -->
            <path fill="#2563EB" d="M-20,-30 L20,-30 L15,20 L-15,20 Z"></path> <!-- Body -->
            <rect fill="#FBBF24" x="-25" y="-20" width="10" height="30" rx="5"></rect> <!-- Left Arm -->
            <rect fill="#FBBF24" x="15" y="-20" width="10" height="30" rx="5"></rect> <!-- Right Arm -->
            <rect fill="#4B5563" x="-15" y="20" width="10" height="30" rx="2"></rect> <!-- Left Leg -->
            <rect fill="#4B5563" x="5" y="20" width="10" height="30" rx="2"></rect> <!-- Right Leg -->
        </g>
        
        <g id="Student-2" transform="translate(620, 450)">
            <circle fill="#FBBF24" cx="0" cy="-50" r="20"></circle> <!-- Head -->
            <path fill="#EC4899" d="M-20,-30 L20,-30 L15,20 L-15,20 Z"></path> <!-- Body -->
            <rect fill="#FBBF24" x="-25" y="-20" width="10" height="30" rx="5"></rect> <!-- Left Arm -->
            <rect fill="#FBBF24" x="15" y="-20" width="10" height="30" rx="5"></rect> <!-- Right Arm -->
            <rect fill="#4B5563" x="-15" y="20" width="10" height="30" rx="2"></rect> <!-- Left Leg -->
            <rect fill="#4B5563" x="5" y="20" width="10" height="30" rx="2"></rect> <!-- Right Leg -->
        </g>
        
        <!-- Sun -->
        <g id="Sun" transform="translate(100, 100)">
            <circle fill="#FBBF24" cx="0" cy="0" r="30"></circle>
            <line x1="0" y1="-40" x2="0" y2="-50" stroke="#FBBF24" stroke-width="4"></line>
            <line x1="0" y1="40" x2="0" y2="50" stroke="#FBBF24" stroke-width="4"></line>
            <line x1="-40" y1="0" x2="-50" y2="0" stroke="#FBBF24" stroke-width="4"></line>
            <line x1="40" y1="0" x2="50" y2="0" stroke="#FBBF24" stroke-width="4"></line>
            <line x1="-28" y1="-28" x2="-35" y2="-35" stroke="#FBBF24" stroke-width="4"></line>
            <line x1="28" y1="-28" x2="35" y2="-35" stroke="#FBBF24" stroke-width="4"></line>
            <line x1="-28" y1="28" x2="-35" y2="35" stroke="#FBBF24" stroke-width="4"></line>
            <line x1="28" y1="28" x2="35" y2="35" stroke="#FBBF24" stroke-width="4"></line>
        </g>
        
        <!-- Clouds -->
        <g id="Cloud-1" transform="translate(650, 120)">
            <circle fill="#F9FAFB" cx="0" cy="0" r="20"></circle>
            <circle fill="#F9FAFB" cx="-25" cy="0" r="15"></circle>
            <circle fill="#F9FAFB" cx="25" cy="0" r="15"></circle>
            <circle fill="#F9FAFB" cx="-10" cy="-15" r="15"></circle>
            <circle fill="#F9FAFB" cx="10" cy="-15" r="15"></circle>
        </g>
        
        <g id="Cloud-2" transform="translate(200, 150)">
            <circle fill="#F9FAFB" cx="0" cy="0" r="15"></circle>
            <circle fill="#F9FAFB" cx="-20" cy="0" r="12"></circle>
            <circle fill="#F9FAFB" cx="20" cy="0" r="12"></circle>
            <circle fill="#F9FAFB" cx="-8" cy="-10" r="12"></circle>
            <circle fill="#F9FAFB" cx="8" cy="-10" r="12"></circle>
        </g>
    </g>
</svg>
